Coordinates
version=1
nRows=14
nColumns=36
inDegrees=yes

Units are S.I. units (second, meters, Newtons, ...)
If the header above contains a line with 'inDegrees', this indicates whether rotational values are in degrees (yes) or radians (no).

endheader
time	pelvis_tilt	pelvis_list	pelvis_rotation	pelvis_tx	pelvis_ty	pelvis_tz	hip_flexion_r	hip_adduction_r	hip_rotation_r	knee_angle_r	knee_angle_r_beta	ankle_angle_r	subtalar_angle_r	mtp_angle_r	hip_flexion_l	hip_adduction_l	hip_rotation_l	knee_angle_l	knee_angle_l_beta	ankle_angle_l	subtalar_angle_l	mtp_angle_l	lumbar_extension	lumbar_bending	lumbar_rotation	arm_flex_r	arm_add_r	arm_rot_r	elbow_flex_r	pro_sup_r	arm_flex_l	arm_add_l	arm_rot_l	elbow_flex_l	pro_sup_l
      3.91666670	     -3.17709511	     14.91611739	     -3.92264018	      0.66645517	      0.77980594	     -0.12711480	     70.46242870	    -21.44140742	     13.47575262	     33.63216312	      0.58699198	     -9.69875854	      5.34373587	     -7.49999962	     51.70058958	     21.37699391	     -6.78512937	     73.32768653	      1.27980956	     26.21321574	    -11.68591128	     -7.49999962	    -37.56459332	     -9.79769005	     -2.73479740	     72.38139899	      5.06717860	     68.53011396	    108.89506035	     88.93304294	     67.96339462	     -2.50250902	     59.00935950	    123.78423926	     91.14152707
      3.93333330	     -2.67793402	     14.99620151	     -3.90459696	      0.66615950	      0.77992495	     -0.12728164	     70.07185274	    -21.56516938	     13.57460108	     33.63796298	      0.58709321	     -9.98813403	      5.25793460	     -7.49999965	     51.37868330	     21.55542134	     -7.06664262	     73.67484354	      1.28586860	     26.09546525	    -11.89152531	     -7.49999965	    -37.91561860	     -9.79128313	     -2.84309214	     72.39685089	      4.88869080	     68.24096432	    109.18474172	     87.10881039	     68.11649838	     -2.36513621	     58.89639292	    123.64469105	     89.27452817
      3.95000000	     -2.31155362	     15.00935123	     -3.90516418	      0.66564554	      0.78047191	     -0.12697579	     69.67713290	    -21.60093843	     13.61691047	     33.59913373	      0.58641551	    -10.28964432	      5.11998332	     -7.49999968	     51.04949286	     21.66529053	     -7.18655850	     73.90509780	      1.28988729	     26.08911014	    -12.06106751	     -7.49999968	    -38.14760535	     -9.78936855	     -3.07698681	     72.56862706	      5.21089109	     68.43890298	    109.41530404	     85.54503291	     68.61730271	     -1.99240007	     58.80379401	    123.46740737	     87.60867683
      3.96666670	     -2.20408201	     15.03418950	     -3.84281141	      0.67072094	      0.78106837	     -0.12323743	     69.51290583	    -21.59858407	     13.60543923	     33.55008553	      0.58555946	    -10.28564957	      5.09962199	     -7.49999968	     50.83813756	     21.74120635	     -7.25764271	     74.01181920	      1.29174993	     26.11641172	    -12.10782428	     -7.49999968	    -37.79735281	     -9.85368070	     -3.07524455	     72.56356265	      5.37567645	     68.43567888	    109.46718440	     85.56067066	     68.71749462	     -1.92934182	     58.80729342	    123.49827465	     87.62413520
      3.98333330	     -1.75330197	     15.01723827	     -3.91834607	      0.66458779	      0.78405172	     -0.12669180	     68.92239718	    -21.48988361	     13.64759504	     33.39972336	      0.58293514	    -10.54528589	      4.58502091	     -7.49999968	     50.32272909	     21.76236119	     -7.33535406	     74.03248093	      1.29211055	     25.92015533	    -12.75834041	     -7.49999968	    -38.35694454	     -9.89065727	     -3.79458193	     73.04359617	      5.96135354	     68.50193752	    109.16185721	     86.03285594	     70.64540726	     -1.55791980	     59.97389644	    123.05441945	     88.11716296
      4.00000000	     -1.67194965	     15.06280220	     -3.85861481	      0.67003678	      0.78763404	     -0.12298327	     68.66758382	    -21.47179024	     13.61091365	     33.29189799	      0.58105323	    -10.54301733	      4.58976761	     -7.49999969	     49.99481348	     21.83204101	     -7.39175646	     73.87129454	      1.28929731	     26.00805697	    -12.91244074	     -7.49999969	    -38.45232477	    -10.03606877	     -3.67944783	     73.02472804	      5.96162771	     68.47450185	    109.20663535	     86.13913134	     70.11951966	     -1.48031087	     60.22080405	    123.15588963	     88.21846829
      4.01666670	     -1.56734648	     15.12733657	     -3.87391849	      0.67198385	      0.78866187	     -0.12839522	     68.27741594	    -21.48334131	     13.60244390	     33.03025165	      0.57648664	    -10.54870051	      4.67978771	     -7.49999969	     49.51372861	     21.97100096	     -7.41956304	     73.50442204	      1.28289418	     26.02673459	    -13.07396680	     -7.49999969	    -38.23065010	    -10.06869140	     -3.65955694	     73.01546303	      5.97277823	     68.13209232	    109.91298944	     86.31796245	     69.57006535	     -1.39088146	     59.96659584	    123.57856215	     88.34460834
      4.03333330	     -1.41223369	     15.09421084	     -3.94085814	      0.67717848	      0.79526982	     -0.12427315	     67.66002565	    -21.44787183	     13.58932235	     32.70910457	      0.57088157	    -10.37859593	      4.90876922	     -7.49999969	     48.71467668	     22.08171801	     -7.24407465	     72.93113580	      1.27288845	     26.11926600	    -13.12778718	     -7.49999969	    -38.09802224	    -10.19361549	     -3.42006028	     72.10953982	      5.96464286	     67.96891807	    110.47308874	     86.54182159	     68.33447414	     -1.51397021	     59.77865400	    124.19777008	     88.51269151
      4.05000000	     -1.38798977	     14.97320223	     -3.89173000	      0.67715531	      0.79600914	     -0.12419005	     67.11241440	    -21.46795797	     13.47272988	     32.51575150	      0.56750692	    -10.15159940	      5.27099619	     -7.49999974	     48.02381187	     22.14566225	     -6.96427176	     72.35772217	      1.26288049	     26.20295161	    -13.21088532	     -7.49999974	    -37.61100835	     -9.96140399	     -3.34009037	     71.55945571	      6.45036892	     67.07088980	    110.34348312	     92.11452074	     67.20314612	     -1.64572795	     58.04990601	    125.21397059	     92.49478955
      4.06666670	     -1.19885980	     14.83876031	     -4.02406764	      0.68434140	      0.80017033	     -0.12594641	     66.33804209	    -21.40962049	     13.47051489	     32.21378306	      0.56223658	     -9.87638469	      5.52207705	     -7.49999974	     47.01437328	     22.25292037	     -6.59355417	     71.67397534	      1.25094686	     26.47209273	    -13.32445438	     -7.49999974	    -36.76255348	    -10.07071596	     -2.95451624	     70.42424173	      6.61472151	     67.69049276	    110.77359613	     92.22623108	     66.19196175	     -1.60076971	     58.04348221	    125.26026450	     92.53508515
      4.08333330	     -1.01103012	     14.60704551	     -3.79247331	      0.67704366	      0.81133355	     -0.12390280	     65.33108523	    -21.61062479	     13.07044792	     31.81557386	      0.55528652	     -9.48650034	      6.26240681	     -7.49999977	     45.91617820	     22.39835131	     -6.01240265	     70.74705571	      1.23476906	     26.44689857	    -13.55849032	     -7.49999977	    -36.53961646	     -9.83772347	     -2.68234202	     70.56353747	      6.62609751	     68.24444413	    110.47720150	     93.63471135	     66.87884720	     -1.07365473	     58.58652084	    124.35704130	     93.31344980
      4.10000000	     -0.78712062	     14.37763262	     -3.56954759	      0.67745496	      0.81753632	     -0.12458948	     64.19806896	    -21.86251709	     12.49289357	     31.31800811	      0.54660236	     -9.20971642	      7.10153184	     -7.49999979	     44.69977035	     22.50635140	     -5.42836963	     69.64729779	      1.21557466	     26.37122924	    -13.73900098	     -7.49999979	    -36.56208176	     -9.59741486	     -2.86580246	     70.37369386	      6.60703356	     68.53592973	    109.97609677	     91.94987904	     66.94611183	     -1.38378248	     59.39558457	    123.73593590	     91.67851503
      4.11666670	     -0.48534266	     14.00979804	     -3.34706322	      0.67262474	      0.82892653	     -0.12818405	     62.64613533	    -22.17689597	     11.42010913	     30.56885433	      0.53352716	     -9.07947429	      8.33010669	     -7.49999979	     43.26375494	     22.60789867	     -4.54789958	     68.27618951	      1.19164431	     26.08173802	    -14.02457473	     -7.49999979	    -36.97230454	     -9.10507143	     -2.67074339	     70.62472431	      5.73893696	     68.13858767	    109.83178799	     92.17988933	     66.87549599	     -1.25599215	     60.08293241	    123.38932757	     92.00513054
      4.13333330	     -0.37332931	     13.70668751	     -3.03913652	      0.67375493	      0.83466240	     -0.12855262	     61.27704806	    -22.51131194	     10.43372786	     29.81744867	      0.52041265	     -9.06198176	      9.53812907	     -7.49999980	     41.92487932	     22.70017700	     -3.70460748	     66.72913170	      1.16464306	     25.95465288	    -13.94877357	     -7.49999980	    -36.90562383	     -8.77296574	     -2.86511868	     70.46402070	      6.00700270	     67.58366366	    109.97331189	     90.16302681	     67.53185060	     -0.80231378	     59.72178935	    123.00761910	     89.98699051
